<svg xmlns="http://www.w3.org/2000/svg" viewBox="0 0 1024 1024" width="1024" height="1024">
  <defs>
    <linearGradient id="bg" x1="0" y1="0" x2="1" y2="1">
      <stop offset="0" stop-color="#8B5CF6"/>
      <stop offset="0.5" stop-color="#6D5DEF"/>
      <stop offset="1" stop-color="#4F46E5"/>
    </linearGradient>
    <radialGradient id="glow" cx="0.28" cy="0.22" r="0.9">
      <stop offset="0" stop-color="#FFFFFF" stop-opacity="0.28"/>
      <stop offset="0.45" stop-color="#FFFFFF" stop-opacity="0.05"/>
      <stop offset="1" stop-color="#FFFFFF" stop-opacity="0"/>
    </radialGradient>
  </defs>
  <path d="M 1024.00 512.00 L 1023.88 645.78 L 1023.50 688.48 L 1022.88 719.47 L 1022.00 744.64 L 1020.87 766.18 L 1019.49 785.16 L 1017.86 802.23 L 1015.97 817.78 L 1013.83 832.08 L 1011.42 845.34 L 1008.75 857.70 L 1005.81 869.27 L 1002.61 880.13 L 999.13 890.37 L 995.37 900.02 L 991.33 909.15 L 987.01 917.78 L 982.38 925.96 L 977.46 933.70 L 972.23 941.04 L 966.67 947.99 L 960.79 954.57 L 954.57 960.79 L 947.99 966.67 L 941.04 972.23 L 933.70 977.46 L 925.96 982.38 L 917.78 987.01 L 909.15 991.33 L 900.02 995.37 L 890.37 999.13 L 880.13 1002.61 L 869.27 1005.81 L 857.70 1008.75 L 845.34 1011.42 L 832.08 1013.83 L 817.78 1015.97 L 802.23 1017.86 L 785.16 1019.49 L 766.18 1020.87 L 744.64 1022.00 L 719.47 1022.88 L 688.48 1023.50 L 645.78 1023.88 L 512.00 1024.00 L 378.22 1023.88 L 335.52 1023.50 L 304.53 1022.88 L 279.36 1022.00 L 257.82 1020.87 L 238.84 1019.49 L 221.77 1017.86 L 206.22 1015.97 L 191.92 1013.83 L 178.66 1011.42 L 166.30 1008.75 L 154.73 1005.81 L 143.87 1002.61 L 133.63 999.13 L 123.98 995.37 L 114.85 991.33 L 106.22 987.01 L 98.04 982.38 L 90.30 977.46 L 82.96 972.23 L 76.01 966.67 L 69.43 960.79 L 63.21 954.57 L 57.33 947.99 L 51.77 941.04 L 46.54 933.70 L 41.62 925.96 L 36.99 917.78 L 32.67 909.15 L 28.63 900.02 L 24.87 890.37 L 21.39 880.13 L 18.19 869.27 L 15.25 857.70 L 12.58 845.34 L 10.17 832.08 L 8.03 817.78 L 6.14 802.23 L 4.51 785.16 L 3.13 766.18 L 2.00 744.64 L 1.12 719.47 L 0.50 688.48 L 0.12 645.78 L 0.00 512.00 L 0.12 378.22 L 0.50 335.52 L 1.12 304.53 L 2.00 279.36 L 3.13 257.82 L 4.51 238.84 L 6.14 221.77 L 8.03 206.22 L 10.17 191.92 L 12.58 178.66 L 15.25 166.30 L 18.19 154.73 L 21.39 143.87 L 24.87 133.63 L 28.63 123.98 L 32.67 114.85 L 36.99 106.22 L 41.62 98.04 L 46.54 90.30 L 51.77 82.96 L 57.33 76.01 L 63.21 69.43 L 69.43 63.21 L 76.01 57.33 L 82.96 51.77 L 90.30 46.54 L 98.04 41.62 L 106.22 36.99 L 114.85 32.67 L 123.98 28.63 L 133.63 24.87 L 143.87 21.39 L 154.73 18.19 L 166.30 15.25 L 178.66 12.58 L 191.92 10.17 L 206.22 8.03 L 221.77 6.14 L 238.84 4.51 L 257.82 3.13 L 279.36 2.00 L 304.53 1.12 L 335.52 0.50 L 378.22 0.12 L 512.00 0.00 L 645.78 0.12 L 688.48 0.50 L 719.47 1.12 L 744.64 2.00 L 766.18 3.13 L 785.16 4.51 L 802.23 6.14 L 817.78 8.03 L 832.08 10.17 L 845.34 12.58 L 857.70 15.25 L 869.27 18.19 L 880.13 21.39 L 890.37 24.87 L 900.02 28.63 L 909.15 32.67 L 917.78 36.99 L 925.96 41.62 L 933.70 46.54 L 941.04 51.77 L 947.99 57.33 L 954.57 63.21 L 960.79 69.43 L 966.67 76.01 L 972.23 82.96 L 977.46 90.30 L 982.38 98.04 L 987.01 106.22 L 991.33 114.85 L 995.37 123.98 L 999.13 133.63 L 1002.61 143.87 L 1005.81 154.73 L 1008.75 166.30 L 1011.42 178.66 L 1013.83 191.92 L 1015.97 206.22 L 1017.86 221.77 L 1019.49 238.84 L 1020.87 257.82 L 1022.00 279.36 L 1022.88 304.53 L 1023.50 335.52 L 1023.88 378.22 L 1024.00 512.00 Z" fill="url(#bg)"/>
  <path d="M 1024.00 512.00 L 1023.88 645.78 L 1023.50 688.48 L 1022.88 719.47 L 1022.00 744.64 L 1020.87 766.18 L 1019.49 785.16 L 1017.86 802.23 L 1015.97 817.78 L 1013.83 832.08 L 1011.42 845.34 L 1008.75 857.70 L 1005.81 869.27 L 1002.61 880.13 L 999.13 890.37 L 995.37 900.02 L 991.33 909.15 L 987.01 917.78 L 982.38 925.96 L 977.46 933.70 L 972.23 941.04 L 966.67 947.99 L 960.79 954.57 L 954.57 960.79 L 947.99 966.67 L 941.04 972.23 L 933.70 977.46 L 925.96 982.38 L 917.78 987.01 L 909.15 991.33 L 900.02 995.37 L 890.37 999.13 L 880.13 1002.61 L 869.27 1005.81 L 857.70 1008.75 L 845.34 1011.42 L 832.08 1013.83 L 817.78 1015.97 L 802.23 1017.86 L 785.16 1019.49 L 766.18 1020.87 L 744.64 1022.00 L 719.47 1022.88 L 688.48 1023.50 L 645.78 1023.88 L 512.00 1024.00 L 378.22 1023.88 L 335.52 1023.50 L 304.53 1022.88 L 279.36 1022.00 L 257.82 1020.87 L 238.84 1019.49 L 221.77 1017.86 L 206.22 1015.97 L 191.92 1013.83 L 178.66 1011.42 L 166.30 1008.75 L 154.73 1005.81 L 143.87 1002.61 L 133.63 999.13 L 123.98 995.37 L 114.85 991.33 L 106.22 987.01 L 98.04 982.38 L 90.30 977.46 L 82.96 972.23 L 76.01 966.67 L 69.43 960.79 L 63.21 954.57 L 57.33 947.99 L 51.77 941.04 L 46.54 933.70 L 41.62 925.96 L 36.99 917.78 L 32.67 909.15 L 28.63 900.02 L 24.87 890.37 L 21.39 880.13 L 18.19 869.27 L 15.25 857.70 L 12.58 845.34 L 10.17 832.08 L 8.03 817.78 L 6.14 802.23 L 4.51 785.16 L 3.13 766.18 L 2.00 744.64 L 1.12 719.47 L 0.50 688.48 L 0.12 645.78 L 0.00 512.00 L 0.12 378.22 L 0.50 335.52 L 1.12 304.53 L 2.00 279.36 L 3.13 257.82 L 4.51 238.84 L 6.14 221.77 L 8.03 206.22 L 10.17 191.92 L 12.58 178.66 L 15.25 166.30 L 18.19 154.73 L 21.39 143.87 L 24.87 133.63 L 28.63 123.98 L 32.67 114.85 L 36.99 106.22 L 41.62 98.04 L 46.54 90.30 L 51.77 82.96 L 57.33 76.01 L 63.21 69.43 L 69.43 63.21 L 76.01 57.33 L 82.96 51.77 L 90.30 46.54 L 98.04 41.62 L 106.22 36.99 L 114.85 32.67 L 123.98 28.63 L 133.63 24.87 L 143.87 21.39 L 154.73 18.19 L 166.30 15.25 L 178.66 12.58 L 191.92 10.17 L 206.22 8.03 L 221.77 6.14 L 238.84 4.51 L 257.82 3.13 L 279.36 2.00 L 304.53 1.12 L 335.52 0.50 L 378.22 0.12 L 512.00 0.00 L 645.78 0.12 L 688.48 0.50 L 719.47 1.12 L 744.64 2.00 L 766.18 3.13 L 785.16 4.51 L 802.23 6.14 L 817.78 8.03 L 832.08 10.17 L 845.34 12.58 L 857.70 15.25 L 869.27 18.19 L 880.13 21.39 L 890.37 24.87 L 900.02 28.63 L 909.15 32.67 L 917.78 36.99 L 925.96 41.62 L 933.70 46.54 L 941.04 51.77 L 947.99 57.33 L 954.57 63.21 L 960.79 69.43 L 966.67 76.01 L 972.23 82.96 L 977.46 90.30 L 982.38 98.04 L 987.01 106.22 L 991.33 114.85 L 995.37 123.98 L 999.13 133.63 L 1002.61 143.87 L 1005.81 154.73 L 1008.75 166.30 L 1011.42 178.66 L 1013.83 191.92 L 1015.97 206.22 L 1017.86 221.77 L 1019.49 238.84 L 1020.87 257.82 L 1022.00 279.36 L 1022.88 304.53 L 1023.50 335.52 L 1023.88 378.22 L 1024.00 512.00 Z" fill="url(#glow)"/>
  <g transform="translate(276.5 276.5) scale(4.7104)"><g transform="translate(2.6 0)"><path d="M56 33 L56 60 Q56 73.5 43 73.5 Q31.5 73.5 30 59.5" fill="none" stroke="#FFFFFF" stroke-width="12.6" stroke-linecap="round" stroke-linejoin="round"/><circle cx="56" cy="17.5" r="8.6" fill="#FFFFFF"/></g></g>
</svg>