<svg xmlns="http://www.w3.org/2000/svg" viewBox="0 0 505 346" width="505" height="346">
  <defs>
    <linearGradient id="bg" x1="0" y1="0" x2="1" y2="1">
      <stop offset="0" stop-color="#8B5CF6"/>
      <stop offset="0.5" stop-color="#6D5DEF"/>
      <stop offset="1" stop-color="#4F46E5"/>
    </linearGradient>
    <radialGradient id="glow" cx="0.28" cy="0.22" r="0.9">
      <stop offset="0" stop-color="#FFFFFF" stop-opacity="0.28"/>
      <stop offset="0.5" stop-color="#FFFFFF" stop-opacity="0.04"/>
      <stop offset="1" stop-color="#FFFFFF" stop-opacity="0"/>
    </radialGradient>
  </defs>
  <g transform="translate(142.5 0)"><path d="M 220.00 110.00 L 219.97 138.74 L 219.89 147.92 L 219.76 154.57 L 219.57 159.98 L 219.33 164.61 L 219.03 168.69 L 218.68 172.35 L 218.28 175.69 L 217.81 178.77 L 217.30 181.62 L 216.72 184.27 L 216.09 186.76 L 215.40 189.09 L 214.66 191.29 L 213.85 193.36 L 212.98 195.33 L 212.05 197.18 L 211.06 198.94 L 210.00 200.60 L 208.88 202.18 L 207.68 203.67 L 206.42 205.08 L 205.08 206.42 L 203.67 207.68 L 202.18 208.88 L 200.60 210.00 L 198.94 211.06 L 197.18 212.05 L 195.33 212.98 L 193.36 213.85 L 191.29 214.66 L 189.09 215.40 L 186.76 216.09 L 184.27 216.72 L 181.62 217.30 L 178.77 217.81 L 175.69 218.28 L 172.35 218.68 L 168.69 219.03 L 164.61 219.33 L 159.98 219.57 L 154.57 219.76 L 147.92 219.89 L 138.74 219.97 L 110.00 220.00 L 81.26 219.97 L 72.08 219.89 L 65.43 219.76 L 60.02 219.57 L 55.39 219.33 L 51.31 219.03 L 47.65 218.68 L 44.31 218.28 L 41.23 217.81 L 38.38 217.30 L 35.73 216.72 L 33.24 216.09 L 30.91 215.40 L 28.71 214.66 L 26.64 213.85 L 24.67 212.98 L 22.82 212.05 L 21.06 211.06 L 19.40 210.00 L 17.82 208.88 L 16.33 207.68 L 14.92 206.42 L 13.58 205.08 L 12.32 203.67 L 11.12 202.18 L 10.00 200.60 L 8.94 198.94 L 7.95 197.18 L 7.02 195.33 L 6.15 193.36 L 5.34 191.29 L 4.60 189.09 L 3.91 186.76 L 3.28 184.27 L 2.70 181.62 L 2.19 178.77 L 1.72 175.69 L 1.32 172.35 L 0.97 168.69 L 0.67 164.61 L 0.43 159.98 L 0.24 154.57 L 0.11 147.92 L 0.03 138.74 L 0.00 110.00 L 0.03 81.26 L 0.11 72.08 L 0.24 65.43 L 0.43 60.02 L 0.67 55.39 L 0.97 51.31 L 1.32 47.65 L 1.72 44.31 L 2.19 41.23 L 2.70 38.38 L 3.28 35.73 L 3.91 33.24 L 4.60 30.91 L 5.34 28.71 L 6.15 26.64 L 7.02 24.67 L 7.95 22.82 L 8.94 21.06 L 10.00 19.40 L 11.12 17.82 L 12.32 16.33 L 13.58 14.92 L 14.92 13.58 L 16.33 12.32 L 17.82 11.12 L 19.40 10.00 L 21.06 8.94 L 22.82 7.95 L 24.67 7.02 L 26.64 6.15 L 28.71 5.34 L 30.91 4.60 L 33.24 3.91 L 35.73 3.28 L 38.38 2.70 L 41.23 2.19 L 44.31 1.72 L 47.65 1.32 L 51.31 0.97 L 55.39 0.67 L 60.02 0.43 L 65.43 0.24 L 72.08 0.11 L 81.26 0.03 L 110.00 0.00 L 138.74 0.03 L 147.92 0.11 L 154.57 0.24 L 159.98 0.43 L 164.61 0.67 L 168.69 0.97 L 172.35 1.32 L 175.69 1.72 L 178.77 2.19 L 181.62 2.70 L 184.27 3.28 L 186.76 3.91 L 189.09 4.60 L 191.29 5.34 L 193.36 6.15 L 195.33 7.02 L 197.18 7.95 L 198.94 8.94 L 200.60 10.00 L 202.18 11.12 L 203.67 12.32 L 205.08 13.58 L 206.42 14.92 L 207.68 16.33 L 208.88 17.82 L 210.00 19.40 L 211.06 21.06 L 212.05 22.82 L 212.98 24.67 L 213.85 26.64 L 214.66 28.71 L 215.40 30.91 L 216.09 33.24 L 216.72 35.73 L 217.30 38.38 L 217.81 41.23 L 218.28 44.31 L 218.68 47.65 L 219.03 51.31 L 219.33 55.39 L 219.57 60.02 L 219.76 65.43 L 219.89 72.08 L 219.97 81.26 L 220.00 110.00 Z" fill="url(#bg)"/><path d="M 220.00 110.00 L 219.97 138.74 L 219.89 147.92 L 219.76 154.57 L 219.57 159.98 L 219.33 164.61 L 219.03 168.69 L 218.68 172.35 L 218.28 175.69 L 217.81 178.77 L 217.30 181.62 L 216.72 184.27 L 216.09 186.76 L 215.40 189.09 L 214.66 191.29 L 213.85 193.36 L 212.98 195.33 L 212.05 197.18 L 211.06 198.94 L 210.00 200.60 L 208.88 202.18 L 207.68 203.67 L 206.42 205.08 L 205.08 206.42 L 203.67 207.68 L 202.18 208.88 L 200.60 210.00 L 198.94 211.06 L 197.18 212.05 L 195.33 212.98 L 193.36 213.85 L 191.29 214.66 L 189.09 215.40 L 186.76 216.09 L 184.27 216.72 L 181.62 217.30 L 178.77 217.81 L 175.69 218.28 L 172.35 218.68 L 168.69 219.03 L 164.61 219.33 L 159.98 219.57 L 154.57 219.76 L 147.92 219.89 L 138.74 219.97 L 110.00 220.00 L 81.26 219.97 L 72.08 219.89 L 65.43 219.76 L 60.02 219.57 L 55.39 219.33 L 51.31 219.03 L 47.65 218.68 L 44.31 218.28 L 41.23 217.81 L 38.38 217.30 L 35.73 216.72 L 33.24 216.09 L 30.91 215.40 L 28.71 214.66 L 26.64 213.85 L 24.67 212.98 L 22.82 212.05 L 21.06 211.06 L 19.40 210.00 L 17.82 208.88 L 16.33 207.68 L 14.92 206.42 L 13.58 205.08 L 12.32 203.67 L 11.12 202.18 L 10.00 200.60 L 8.94 198.94 L 7.95 197.18 L 7.02 195.33 L 6.15 193.36 L 5.34 191.29 L 4.60 189.09 L 3.91 186.76 L 3.28 184.27 L 2.70 181.62 L 2.19 178.77 L 1.72 175.69 L 1.32 172.35 L 0.97 168.69 L 0.67 164.61 L 0.43 159.98 L 0.24 154.57 L 0.11 147.92 L 0.03 138.74 L 0.00 110.00 L 0.03 81.26 L 0.11 72.08 L 0.24 65.43 L 0.43 60.02 L 0.67 55.39 L 0.97 51.31 L 1.32 47.65 L 1.72 44.31 L 2.19 41.23 L 2.70 38.38 L 3.28 35.73 L 3.91 33.24 L 4.60 30.91 L 5.34 28.71 L 6.15 26.64 L 7.02 24.67 L 7.95 22.82 L 8.94 21.06 L 10.00 19.40 L 11.12 17.82 L 12.32 16.33 L 13.58 14.92 L 14.92 13.58 L 16.33 12.32 L 17.82 11.12 L 19.40 10.00 L 21.06 8.94 L 22.82 7.95 L 24.67 7.02 L 26.64 6.15 L 28.71 5.34 L 30.91 4.60 L 33.24 3.91 L 35.73 3.28 L 38.38 2.70 L 41.23 2.19 L 44.31 1.72 L 47.65 1.32 L 51.31 0.97 L 55.39 0.67 L 60.02 0.43 L 65.43 0.24 L 72.08 0.11 L 81.26 0.03 L 110.00 0.00 L 138.74 0.03 L 147.92 0.11 L 154.57 0.24 L 159.98 0.43 L 164.61 0.67 L 168.69 0.97 L 172.35 1.32 L 175.69 1.72 L 178.77 2.19 L 181.62 2.70 L 184.27 3.28 L 186.76 3.91 L 189.09 4.60 L 191.29 5.34 L 193.36 6.15 L 195.33 7.02 L 197.18 7.95 L 198.94 8.94 L 200.60 10.00 L 202.18 11.12 L 203.67 12.32 L 205.08 13.58 L 206.42 14.92 L 207.68 16.33 L 208.88 17.82 L 210.00 19.40 L 211.06 21.06 L 212.05 22.82 L 212.98 24.67 L 213.85 26.64 L 214.66 28.71 L 215.40 30.91 L 216.09 33.24 L 216.72 35.73 L 217.30 38.38 L 217.81 41.23 L 218.28 44.31 L 218.68 47.65 L 219.03 51.31 L 219.33 55.39 L 219.57 60.02 L 219.76 65.43 L 219.89 72.08 L 219.97 81.26 L 220.00 110.00 Z" fill="url(#glow)"/><g transform="translate(59.4 59.4) scale(1.0120)"><g transform="translate(2.6 0)"><path d="M56 33 L56 60 Q56 73.5 43 73.5 Q31.5 73.5 30 59.5" fill="none" stroke="#FFFFFF" stroke-width="12.6" stroke-linecap="round" stroke-linejoin="round"/><circle cx="56" cy="17.5" r="8.6" fill="#FFFFFF"/></g></g></g>
  <g transform="translate(20.0 336.9)"><g><path d="M 29.84 1.68 Q 21.30 1.68 15.44 -1.04 Q 9.60 -3.78 6.52 -8.58 Q 3.44 -13.38 3.44 -19.44 L 15.66 -19.44 Q 15.66 -16.90 17.06 -14.48 Q 18.48 -12.06 21.60 -10.56 Q 24.72 -9.06 29.84 -9.06 Q 34.40 -9.06 37.48 -10.38 Q 40.56 -11.70 42.06 -13.86 Q 43.56 -16.02 43.56 -18.74 Q 43.56 -22.18 40.66 -24.24 Q 37.76 -26.32 31.68 -26.84 L 26.04 -27.28 Q 16.80 -28.08 11.30 -33.04 Q 5.80 -38.02 5.80 -46.20 Q 5.80 -52.36 8.70 -56.80 Q 11.62 -61.24 16.84 -63.66 Q 22.08 -66.08 29.12 -66.08 Q 36.44 -66.08 41.72 -63.52 Q 47.00 -60.98 49.90 -56.36 Q 52.80 -51.74 52.80 -45.50 L 40.56 -45.50 Q 40.56 -48.14 39.28 -50.38 Q 38.02 -52.62 35.50 -53.98 Q 33.00 -55.36 29.12 -55.36 Q 25.44 -55.36 22.96 -54.12 Q 20.50 -52.88 19.26 -50.77 Q 18.04 -48.66 18.04 -46.20 Q 18.04 -43.20 20.24 -40.96 Q 22.44 -38.72 27.20 -38.36 L 32.82 -37.84 Q 39.68 -37.32 44.88 -34.94 Q 50.08 -32.56 52.94 -28.50 Q 55.80 -24.46 55.80 -18.74 Q 55.80 -12.68 52.62 -8.06 Q 49.46 -3.44 43.60 -0.88 Q 37.76 1.68 29.84 1.68 Z M 66.27 17.60 L 66.27 -47.78 L 75.95 -47.78 L 75.95 -27.20 L 74.45 -27.28 Q 74.79 -34.58 77.48 -39.50 Q 80.17 -44.44 84.65 -46.86 Q 89.15 -49.28 94.69 -49.28 Q 99.79 -49.28 103.88 -47.42 Q 107.97 -45.58 110.92 -42.24 Q 113.87 -38.90 115.45 -34.44 Q 117.03 -30.00 117.03 -24.90 L 117.03 -23.06 Q 117.03 -17.86 115.49 -13.42 Q 113.95 -8.98 111.01 -5.58 Q 108.07 -2.20 103.93 -0.30 Q 99.79 1.58 94.69 1.58 Q 89.31 1.58 84.87 -0.66 Q 80.43 -2.90 77.70 -7.60 Q 74.97 -12.32 74.63 -19.80 L 78.49 -13.90 L 78.49 17.60 L 66.27 17.60 Z M 91.61 -8.72 Q 95.57 -8.72 98.51 -10.64 Q 101.47 -12.58 103.13 -16.06 Q 104.81 -19.54 104.81 -23.94 Q 104.81 -28.52 103.13 -31.86 Q 101.47 -35.20 98.51 -37.08 Q 95.57 -38.98 91.61 -38.98 Q 87.99 -38.98 84.96 -37.40 Q 81.93 -35.82 80.03 -32.74 Q 78.15 -29.66 78.15 -25.34 L 78.15 -21.82 Q 78.15 -17.68 80.07 -14.78 Q 82.01 -11.88 85.09 -10.30 Q 88.17 -8.72 91.61 -8.72 Z M 149.16 1.68 Q 143.00 1.68 138.38 -0.44 Q 133.76 -2.56 130.72 -6.12 Q 127.69 -9.68 126.15 -14.08 Q 124.61 -18.48 124.61 -23.06 L 124.61 -24.72 Q 124.61 -29.48 126.15 -33.92 Q 127.69 -38.36 130.72 -41.84 Q 133.76 -45.32 138.25 -47.38 Q 142.74 -49.46 148.63 -49.46 Q 156.38 -49.46 161.61 -46.06 Q 166.85 -42.68 169.49 -37.18 Q 172.13 -31.68 172.13 -25.34 L 172.13 -20.94 L 129.80 -20.94 L 129.80 -28.42 L 164.47 -28.42 L 160.69 -24.72 Q 160.69 -29.30 159.37 -32.56 Q 158.05 -35.82 155.36 -37.58 Q 152.68 -39.34 148.63 -39.34 Q 144.58 -39.34 141.77 -37.48 Q 138.95 -35.64 137.49 -32.16 Q 136.05 -28.68 136.05 -23.84 Q 136.05 -19.36 137.45 -15.88 Q 138.86 -12.40 141.77 -10.42 Q 144.67 -8.44 149.16 -8.44 Q 153.65 -8.44 156.46 -10.24 Q 159.28 -12.06 160.07 -14.70 L 171.34 -14.70 Q 170.28 -9.76 167.29 -6.06 Q 164.30 -2.38 159.68 -0.34 Q 155.06 1.68 149.16 1.68 Z M 182.34 -0.00 L 182.34 -47.78 L 192.02 -47.78 L 192.02 -27.28 L 191.14 -27.28 Q 191.14 -34.58 193.07 -39.46 Q 195.01 -44.36 198.83 -46.82 Q 202.66 -49.28 208.38 -49.28 L 208.91 -49.28 Q 217.45 -49.28 221.85 -43.78 Q 226.25 -38.28 226.25 -27.36 L 226.25 -0.00 L 214.02 -0.00 L 214.02 -28.42 Q 214.02 -32.82 211.51 -35.54 Q 209.00 -38.28 204.60 -38.28 Q 200.11 -38.28 197.33 -35.50 Q 194.57 -32.74 194.57 -28.08 L 194.57 -0.00 L 182.34 -0.00 Z M 259.17 1.58 Q 254.15 1.58 249.91 -0.26 Q 245.69 -2.12 242.61 -5.46 Q 239.53 -8.80 237.85 -13.24 Q 236.19 -17.68 236.19 -22.88 L 236.19 -24.72 Q 236.19 -29.84 237.81 -34.32 Q 239.45 -38.80 242.39 -42.14 Q 245.35 -45.50 249.53 -47.38 Q 253.71 -49.28 258.81 -49.28 Q 264.45 -49.28 268.71 -46.86 Q 272.97 -44.44 275.53 -39.60 Q 278.09 -34.76 278.35 -27.46 L 274.73 -31.68 L 274.73 -64.24 L 286.97 -64.24 L 286.97 -0.00 L 277.29 -0.00 L 277.29 -20.32 L 279.41 -20.32 Q 279.13 -13.02 276.41 -8.14 Q 273.69 -3.26 269.23 -0.84 Q 264.79 1.58 259.17 1.58 Z M 261.89 -8.72 Q 265.49 -8.72 268.49 -10.34 Q 271.49 -11.96 273.29 -15.08 Q 275.09 -18.22 275.09 -22.44 L 275.09 -25.96 Q 275.09 -30.18 273.23 -33.04 Q 271.39 -35.90 268.39 -37.44 Q 265.41 -38.98 261.89 -38.98 Q 257.93 -38.98 254.89 -37.08 Q 251.85 -35.20 250.13 -31.76 Q 248.43 -28.34 248.43 -23.76 Q 248.43 -19.18 250.19 -15.79 Q 251.95 -12.40 254.97 -10.56 Q 258.01 -8.72 261.89 -8.72 Z" fill="#13111C"/><g transform="translate(313.37 0)"><path d="M 26.66 1.68 Q 19.36 1.68 14.04 -1.10 Q 8.72 -3.88 5.86 -9.16 Q 3.00 -14.44 3.00 -22.00 L 3.00 -25.26 L 17.24 -25.26 L 17.24 -21.20 Q 17.24 -16.98 19.75 -14.38 Q 22.26 -11.80 26.66 -11.80 Q 30.98 -11.80 33.48 -14.38 Q 36.00 -16.98 36.00 -21.20 L 36.00 -53.42 L 50.42 -53.42 L 50.42 -22.00 Q 50.42 -14.44 47.56 -9.16 Q 44.70 -3.88 39.38 -1.10 Q 34.06 1.68 26.66 1.68 Z M 10.48 -51.66 L 10.48 -64.24 L 50.42 -64.24 L 50.42 -51.66 L 10.48 -51.66 Z M 86.50 1.68 Q 80.17 1.68 75.23 -0.30 Q 70.31 -2.28 66.92 -5.72 Q 63.54 -9.16 61.78 -13.60 Q 60.02 -18.04 60.02 -22.96 L 60.02 -25.00 Q 60.02 -30.00 61.82 -34.54 Q 63.62 -39.08 67.10 -42.50 Q 70.58 -45.94 75.50 -47.92 Q 80.43 -49.90 86.50 -49.90 Q 92.75 -49.90 97.63 -47.92 Q 102.52 -45.94 105.95 -42.50 Q 109.38 -39.08 111.23 -34.54 Q 113.08 -30.00 113.08 -25.00 L 113.08 -22.96 Q 113.08 -18.04 111.32 -13.60 Q 109.56 -9.16 106.17 -5.72 Q 102.78 -2.28 97.85 -0.30 Q 92.93 1.68 86.50 1.68 Z M 86.50 -10.20 Q 90.64 -10.20 93.37 -11.96 Q 96.10 -13.72 97.55 -16.89 Q 99.00 -20.06 99.00 -23.94 Q 99.00 -28.08 97.50 -31.20 Q 96.01 -34.32 93.23 -36.16 Q 90.46 -38.02 86.50 -38.02 Q 82.63 -38.02 79.81 -36.16 Q 77.00 -34.32 75.55 -31.20 Q 74.10 -28.08 74.10 -23.94 Q 74.10 -20.06 75.50 -16.89 Q 76.91 -13.72 79.73 -11.96 Q 82.54 -10.20 86.50 -10.20 Z M 144.85 0.62 Q 137.55 0.62 133.05 -1.18 Q 128.57 -3.00 126.49 -7.26 Q 124.43 -11.52 124.43 -18.84 L 124.43 -61.24 L 137.55 -61.24 L 137.55 -18.30 Q 137.55 -14.88 139.35 -13.06 Q 141.15 -11.26 144.49 -11.26 L 151.63 -11.26 L 151.63 0.62 L 144.85 0.62 Z M 117.13 -37.92 L 117.13 -48.22 L 151.63 -48.22 L 151.63 -37.92 L 117.13 -37.92 Z" fill="#7C3AED"/></g></g></g>
</svg>