<svg xmlns="http://www.w3.org/2000/svg" viewBox="0 0 739 168" width="739" height="168">
  <defs>
    <linearGradient id="bg" x1="0" y1="0" x2="1" y2="1">
      <stop offset="0" stop-color="#8B5CF6"/>
      <stop offset="0.5" stop-color="#6D5DEF"/>
      <stop offset="1" stop-color="#4F46E5"/>
    </linearGradient>
    <radialGradient id="glow" cx="0.28" cy="0.22" r="0.9">
      <stop offset="0" stop-color="#FFFFFF" stop-opacity="0.28"/>
      <stop offset="0.5" stop-color="#FFFFFF" stop-opacity="0.04"/>
      <stop offset="1" stop-color="#FFFFFF" stop-opacity="0"/>
    </radialGradient>
  </defs>
  <path d="M 168.00 84.00 L 167.98 105.95 L 167.92 112.95 L 167.82 118.04 L 167.67 122.17 L 167.49 125.70 L 167.26 128.82 L 166.99 131.62 L 166.68 134.17 L 166.33 136.51 L 165.94 138.69 L 165.50 140.72 L 165.02 142.61 L 164.49 144.40 L 163.92 146.08 L 163.30 147.66 L 162.64 149.16 L 161.93 150.57 L 161.17 151.92 L 160.36 153.19 L 159.51 154.39 L 158.59 155.53 L 157.63 156.61 L 156.61 157.63 L 155.53 158.59 L 154.39 159.51 L 153.19 160.36 L 151.92 161.17 L 150.57 161.93 L 149.16 162.64 L 147.66 163.30 L 146.08 163.92 L 144.40 164.49 L 142.61 165.02 L 140.72 165.50 L 138.69 165.94 L 136.51 166.33 L 134.17 166.68 L 131.62 166.99 L 128.82 167.26 L 125.70 167.49 L 122.17 167.67 L 118.04 167.82 L 112.95 167.92 L 105.95 167.98 L 84.00 168.00 L 62.05 167.98 L 55.05 167.92 L 49.96 167.82 L 45.83 167.67 L 42.30 167.49 L 39.18 167.26 L 36.38 166.99 L 33.83 166.68 L 31.49 166.33 L 29.31 165.94 L 27.28 165.50 L 25.39 165.02 L 23.60 164.49 L 21.92 163.92 L 20.34 163.30 L 18.84 162.64 L 17.43 161.93 L 16.08 161.17 L 14.81 160.36 L 13.61 159.51 L 12.47 158.59 L 11.39 157.63 L 10.37 156.61 L 9.41 155.53 L 8.49 154.39 L 7.64 153.19 L 6.83 151.92 L 6.07 150.57 L 5.36 149.16 L 4.70 147.66 L 4.08 146.08 L 3.51 144.40 L 2.98 142.61 L 2.50 140.72 L 2.06 138.69 L 1.67 136.51 L 1.32 134.17 L 1.01 131.62 L 0.74 128.82 L 0.51 125.70 L 0.33 122.17 L 0.18 118.04 L 0.08 112.95 L 0.02 105.95 L 0.00 84.00 L 0.02 62.05 L 0.08 55.05 L 0.18 49.96 L 0.33 45.83 L 0.51 42.30 L 0.74 39.18 L 1.01 36.38 L 1.32 33.83 L 1.67 31.49 L 2.06 29.31 L 2.50 27.28 L 2.98 25.39 L 3.51 23.60 L 4.08 21.92 L 4.70 20.34 L 5.36 18.84 L 6.07 17.43 L 6.83 16.08 L 7.64 14.81 L 8.49 13.61 L 9.41 12.47 L 10.37 11.39 L 11.39 10.37 L 12.47 9.41 L 13.61 8.49 L 14.81 7.64 L 16.08 6.83 L 17.43 6.07 L 18.84 5.36 L 20.34 4.70 L 21.92 4.08 L 23.60 3.51 L 25.39 2.98 L 27.28 2.50 L 29.31 2.06 L 31.49 1.67 L 33.83 1.32 L 36.38 1.01 L 39.18 0.74 L 42.30 0.51 L 45.83 0.33 L 49.96 0.18 L 55.05 0.08 L 62.05 0.02 L 84.00 0.00 L 105.95 0.02 L 112.95 0.08 L 118.04 0.18 L 122.17 0.33 L 125.70 0.51 L 128.82 0.74 L 131.62 1.01 L 134.17 1.32 L 136.51 1.67 L 138.69 2.06 L 140.72 2.50 L 142.61 2.98 L 144.40 3.51 L 146.08 4.08 L 147.66 4.70 L 149.16 5.36 L 150.57 6.07 L 151.92 6.83 L 153.19 7.64 L 154.39 8.49 L 155.53 9.41 L 156.61 10.37 L 157.63 11.39 L 158.59 12.47 L 159.51 13.61 L 160.36 14.81 L 161.17 16.08 L 161.93 17.43 L 162.64 18.84 L 163.30 20.34 L 163.92 21.92 L 164.49 23.60 L 165.02 25.39 L 165.50 27.28 L 165.94 29.31 L 166.33 31.49 L 166.68 33.83 L 166.99 36.38 L 167.26 39.18 L 167.49 42.30 L 167.67 45.83 L 167.82 49.96 L 167.92 55.05 L 167.98 62.05 L 168.00 84.00 Z" fill="url(#bg)"/><path d="M 168.00 84.00 L 167.98 105.95 L 167.92 112.95 L 167.82 118.04 L 167.67 122.17 L 167.49 125.70 L 167.26 128.82 L 166.99 131.62 L 166.68 134.17 L 166.33 136.51 L 165.94 138.69 L 165.50 140.72 L 165.02 142.61 L 164.49 144.40 L 163.92 146.08 L 163.30 147.66 L 162.64 149.16 L 161.93 150.57 L 161.17 151.92 L 160.36 153.19 L 159.51 154.39 L 158.59 155.53 L 157.63 156.61 L 156.61 157.63 L 155.53 158.59 L 154.39 159.51 L 153.19 160.36 L 151.92 161.17 L 150.57 161.93 L 149.16 162.64 L 147.66 163.30 L 146.08 163.92 L 144.40 164.49 L 142.61 165.02 L 140.72 165.50 L 138.69 165.94 L 136.51 166.33 L 134.17 166.68 L 131.62 166.99 L 128.82 167.26 L 125.70 167.49 L 122.17 167.67 L 118.04 167.82 L 112.95 167.92 L 105.95 167.98 L 84.00 168.00 L 62.05 167.98 L 55.05 167.92 L 49.96 167.82 L 45.83 167.67 L 42.30 167.49 L 39.18 167.26 L 36.38 166.99 L 33.83 166.68 L 31.49 166.33 L 29.31 165.94 L 27.28 165.50 L 25.39 165.02 L 23.60 164.49 L 21.92 163.92 L 20.34 163.30 L 18.84 162.64 L 17.43 161.93 L 16.08 161.17 L 14.81 160.36 L 13.61 159.51 L 12.47 158.59 L 11.39 157.63 L 10.37 156.61 L 9.41 155.53 L 8.49 154.39 L 7.64 153.19 L 6.83 151.92 L 6.07 150.57 L 5.36 149.16 L 4.70 147.66 L 4.08 146.08 L 3.51 144.40 L 2.98 142.61 L 2.50 140.72 L 2.06 138.69 L 1.67 136.51 L 1.32 134.17 L 1.01 131.62 L 0.74 128.82 L 0.51 125.70 L 0.33 122.17 L 0.18 118.04 L 0.08 112.95 L 0.02 105.95 L 0.00 84.00 L 0.02 62.05 L 0.08 55.05 L 0.18 49.96 L 0.33 45.83 L 0.51 42.30 L 0.74 39.18 L 1.01 36.38 L 1.32 33.83 L 1.67 31.49 L 2.06 29.31 L 2.50 27.28 L 2.98 25.39 L 3.51 23.60 L 4.08 21.92 L 4.70 20.34 L 5.36 18.84 L 6.07 17.43 L 6.83 16.08 L 7.64 14.81 L 8.49 13.61 L 9.41 12.47 L 10.37 11.39 L 11.39 10.37 L 12.47 9.41 L 13.61 8.49 L 14.81 7.64 L 16.08 6.83 L 17.43 6.07 L 18.84 5.36 L 20.34 4.70 L 21.92 4.08 L 23.60 3.51 L 25.39 2.98 L 27.28 2.50 L 29.31 2.06 L 31.49 1.67 L 33.83 1.32 L 36.38 1.01 L 39.18 0.74 L 42.30 0.51 L 45.83 0.33 L 49.96 0.18 L 55.05 0.08 L 62.05 0.02 L 84.00 0.00 L 105.95 0.02 L 112.95 0.08 L 118.04 0.18 L 122.17 0.33 L 125.70 0.51 L 128.82 0.74 L 131.62 1.01 L 134.17 1.32 L 136.51 1.67 L 138.69 2.06 L 140.72 2.50 L 142.61 2.98 L 144.40 3.51 L 146.08 4.08 L 147.66 4.70 L 149.16 5.36 L 150.57 6.07 L 151.92 6.83 L 153.19 7.64 L 154.39 8.49 L 155.53 9.41 L 156.61 10.37 L 157.63 11.39 L 158.59 12.47 L 159.51 13.61 L 160.36 14.81 L 161.17 16.08 L 161.93 17.43 L 162.64 18.84 L 163.30 20.34 L 163.92 21.92 L 164.49 23.60 L 165.02 25.39 L 165.50 27.28 L 165.94 29.31 L 166.33 31.49 L 166.68 33.83 L 166.99 36.38 L 167.26 39.18 L 167.49 42.30 L 167.67 45.83 L 167.82 49.96 L 167.92 55.05 L 167.98 62.05 L 168.00 84.00 Z" fill="url(#glow)"/><g transform="translate(45.4 45.4) scale(0.7728)"><g transform="translate(2.6 0)"><path d="M56 33 L56 60 Q56 73.5 43 73.5 Q31.5 73.5 30 59.5" fill="none" stroke="#FFFFFF" stroke-width="12.6" stroke-linecap="round" stroke-linejoin="round"/><circle cx="56" cy="17.5" r="8.6" fill="#FFFFFF"/></g></g>
  <g transform="translate(224.0 116.4)"><g><path d="M 32.55 1.83 Q 23.23 1.83 16.84 -1.14 Q 10.47 -4.12 7.11 -9.36 Q 3.75 -14.59 3.75 -21.21 L 17.09 -21.21 Q 17.09 -18.43 18.61 -15.79 Q 20.16 -13.15 23.56 -11.52 Q 26.97 -9.88 32.55 -9.88 Q 37.53 -9.88 40.89 -11.32 Q 44.25 -12.76 45.88 -15.12 Q 47.52 -17.47 47.52 -20.45 Q 47.52 -24.20 44.35 -26.45 Q 41.19 -28.71 34.56 -29.28 L 28.41 -29.76 Q 18.33 -30.63 12.33 -36.05 Q 6.33 -41.48 6.33 -50.40 Q 6.33 -57.12 9.49 -61.96 Q 12.67 -66.81 18.38 -69.45 Q 24.09 -72.09 31.77 -72.09 Q 39.75 -72.09 45.51 -69.30 Q 51.27 -66.52 54.43 -61.48 Q 57.60 -56.45 57.60 -49.63 L 44.25 -49.63 Q 44.25 -52.52 42.85 -54.96 Q 41.48 -57.41 38.73 -58.89 Q 36.00 -60.39 31.77 -60.39 Q 27.75 -60.39 25.05 -59.04 Q 22.36 -57.69 21.02 -55.38 Q 19.68 -53.09 19.68 -50.40 Q 19.68 -47.13 22.08 -44.68 Q 24.48 -42.24 29.67 -41.85 L 35.80 -41.28 Q 43.29 -40.71 48.96 -38.12 Q 54.63 -35.52 57.75 -31.09 Q 60.87 -26.68 60.87 -20.45 Q 60.87 -13.83 57.41 -8.79 Q 53.95 -3.75 47.56 -0.96 Q 41.19 1.83 32.55 1.83 Z M 72.29 19.20 L 72.29 -52.12 L 82.85 -52.12 L 82.85 -29.67 L 81.22 -29.76 Q 81.59 -37.73 84.52 -43.09 Q 87.46 -48.48 92.35 -51.12 Q 97.25 -53.76 103.30 -53.76 Q 108.86 -53.76 113.32 -51.73 Q 117.79 -49.73 121.00 -46.08 Q 124.22 -42.43 125.95 -37.57 Q 127.67 -32.73 127.67 -27.16 L 127.67 -25.15 Q 127.67 -19.48 125.99 -14.64 Q 124.31 -9.79 121.10 -6.09 Q 117.89 -2.40 113.38 -0.33 Q 108.86 1.72 103.30 1.72 Q 97.43 1.72 92.59 -0.72 Q 87.74 -3.17 84.76 -8.29 Q 81.79 -13.44 81.41 -21.60 L 85.63 -15.16 L 85.63 19.20 L 72.29 19.20 Z M 99.94 -9.51 Q 104.26 -9.51 107.47 -11.61 Q 110.69 -13.72 112.51 -17.52 Q 114.34 -21.31 114.34 -26.11 Q 114.34 -31.11 112.51 -34.75 Q 110.69 -38.40 107.47 -40.45 Q 104.26 -42.52 99.94 -42.52 Q 95.99 -42.52 92.68 -40.80 Q 89.38 -39.07 87.31 -35.71 Q 85.25 -32.35 85.25 -27.64 L 85.25 -23.80 Q 85.25 -19.29 87.35 -16.12 Q 89.47 -12.96 92.83 -11.23 Q 96.19 -9.51 99.94 -9.51 Z M 162.72 1.83 Q 156.00 1.83 150.96 -0.48 Q 145.92 -2.79 142.61 -6.67 Q 139.29 -10.56 137.61 -15.36 Q 135.93 -20.16 135.93 -25.15 L 135.93 -26.97 Q 135.93 -32.16 137.61 -37.00 Q 139.29 -41.85 142.61 -45.64 Q 145.92 -49.44 150.81 -51.69 Q 155.72 -53.95 162.14 -53.95 Q 170.60 -53.95 176.30 -50.25 Q 182.01 -46.56 184.89 -40.56 Q 187.77 -34.56 187.77 -27.64 L 187.77 -22.84 L 141.60 -22.84 L 141.60 -31.00 L 179.42 -31.00 L 175.29 -26.97 Q 175.29 -31.96 173.85 -35.52 Q 172.41 -39.07 169.49 -40.99 Q 166.56 -42.91 162.14 -42.91 Q 157.73 -42.91 154.65 -40.89 Q 151.58 -38.88 149.99 -35.09 Q 148.41 -31.29 148.41 -26.01 Q 148.41 -21.12 149.94 -17.32 Q 151.49 -13.53 154.65 -11.37 Q 157.82 -9.21 162.72 -9.21 Q 167.61 -9.21 170.69 -11.17 Q 173.76 -13.15 174.62 -16.04 L 186.92 -16.04 Q 185.76 -10.65 182.49 -6.61 Q 179.24 -2.59 174.20 -0.38 Q 169.16 1.83 162.72 1.83 Z M 198.92 -0.00 L 198.92 -52.12 L 209.48 -52.12 L 209.48 -29.76 L 208.52 -29.76 Q 208.52 -37.73 210.62 -43.05 Q 212.73 -48.39 216.90 -51.07 Q 221.09 -53.76 227.33 -53.76 L 227.90 -53.76 Q 237.21 -53.76 242.01 -47.76 Q 246.81 -41.76 246.81 -29.85 L 246.81 -0.00 L 233.48 -0.00 L 233.48 -31.00 Q 233.48 -35.80 230.73 -38.77 Q 228.00 -41.76 223.20 -41.76 Q 218.30 -41.76 215.27 -38.73 Q 212.25 -35.71 212.25 -30.63 L 212.25 -0.00 L 198.92 -0.00 Z M 282.73 1.72 Q 277.25 1.72 272.63 -0.28 Q 268.03 -2.31 264.67 -5.96 Q 261.31 -9.60 259.48 -14.45 Q 257.66 -19.29 257.66 -24.96 L 257.66 -26.97 Q 257.66 -32.55 259.43 -37.44 Q 261.22 -42.33 264.43 -45.98 Q 267.65 -49.63 272.21 -51.69 Q 276.77 -53.76 282.34 -53.76 Q 288.49 -53.76 293.14 -51.12 Q 297.79 -48.48 300.58 -43.20 Q 303.37 -37.92 303.65 -29.95 L 299.71 -34.56 L 299.71 -70.08 L 313.06 -70.08 L 313.06 -0.00 L 302.50 -0.00 L 302.50 -22.17 L 304.81 -22.17 Q 304.51 -14.21 301.54 -8.88 Q 298.57 -3.55 293.71 -0.91 Q 288.86 1.72 282.73 1.72 Z M 285.70 -9.51 Q 289.63 -9.51 292.90 -11.28 Q 296.17 -13.05 298.13 -16.45 Q 300.10 -19.88 300.10 -24.48 L 300.10 -28.32 Q 300.10 -32.92 298.07 -36.05 Q 296.06 -39.16 292.79 -40.84 Q 289.54 -42.52 285.70 -42.52 Q 281.38 -42.52 278.06 -40.45 Q 274.75 -38.40 272.87 -34.65 Q 271.01 -30.91 271.01 -25.92 Q 271.01 -20.93 272.93 -17.22 Q 274.85 -13.53 278.15 -11.52 Q 281.47 -9.51 285.70 -9.51 Z" fill="#13111C"/><g transform="translate(341.86 0)"><path d="M 29.08 1.83 Q 21.12 1.83 15.31 -1.20 Q 9.51 -4.23 6.39 -9.99 Q 3.27 -15.75 3.27 -24.00 L 3.27 -27.55 L 18.81 -27.55 L 18.81 -23.13 Q 18.81 -18.52 21.54 -15.69 Q 24.29 -12.87 29.08 -12.87 Q 33.80 -12.87 36.52 -15.69 Q 39.27 -18.52 39.27 -23.13 L 39.27 -58.27 L 55.00 -58.27 L 55.00 -24.00 Q 55.00 -15.75 51.88 -9.99 Q 48.77 -4.23 42.96 -1.20 Q 37.16 1.83 29.08 1.83 Z M 11.43 -56.35 L 11.43 -70.08 L 55.00 -70.08 L 55.00 -56.35 L 11.43 -56.35 Z M 94.37 1.83 Q 87.45 1.83 82.07 -0.33 Q 76.70 -2.49 73.01 -6.24 Q 69.32 -9.99 67.40 -14.83 Q 65.48 -19.68 65.48 -25.05 L 65.48 -27.27 Q 65.48 -32.73 67.44 -37.68 Q 69.41 -42.63 73.20 -46.36 Q 77.00 -50.11 82.37 -52.27 Q 87.74 -54.43 94.37 -54.43 Q 101.18 -54.43 106.50 -52.27 Q 111.84 -50.11 115.58 -46.36 Q 119.33 -42.63 121.34 -37.68 Q 123.36 -32.73 123.36 -27.27 L 123.36 -25.05 Q 123.36 -19.68 121.44 -14.83 Q 119.52 -9.99 115.82 -6.24 Q 112.13 -2.49 106.74 -0.33 Q 101.37 1.83 94.37 1.83 Z M 94.37 -11.13 Q 98.88 -11.13 101.85 -13.05 Q 104.84 -14.97 106.41 -18.42 Q 108.00 -21.88 108.00 -26.11 Q 108.00 -30.63 106.37 -34.03 Q 104.73 -37.44 101.70 -39.45 Q 98.69 -41.48 94.37 -41.48 Q 90.14 -41.48 87.06 -39.45 Q 84.00 -37.44 82.41 -34.03 Q 80.84 -30.63 80.84 -26.11 Q 80.84 -21.88 82.37 -18.42 Q 83.90 -14.97 86.97 -13.05 Q 90.05 -11.13 94.37 -11.13 Z M 158.02 0.67 Q 150.05 0.67 145.15 -1.29 Q 140.26 -3.27 137.99 -7.92 Q 135.74 -12.57 135.74 -20.55 L 135.74 -66.81 L 150.05 -66.81 L 150.05 -19.96 Q 150.05 -16.23 152.02 -14.25 Q 153.98 -12.29 157.63 -12.29 L 165.41 -12.29 L 165.41 0.67 L 158.02 0.67 Z M 127.78 -41.37 L 127.78 -52.60 L 165.41 -52.60 L 165.41 -41.37 L 127.78 -41.37 Z" fill="#7C3AED"/></g></g></g>
</svg>